<svg fill="none" height="32" viewBox="0 0 32 32" width="32" xmlns="http://www.w3.org/2000/svg" xmlns:xlink="http://www.w3.org/1999/xlink"><clipPath id="a"><path d="m0 0h32v32h-32z"/></clipPath><g clip-path="url(#a)"><path d="m14.1667 16.0001v.0001c.0002.4862.1934.9524.5372 1.2961v.0001l4 3.9999-.0001.0001.0063.006c.3457.3339.8088.5187 1.2895.5146.4807-.0042.9405-.197 1.2805-.5369.3399-.34.5327-.7998.5369-1.2805.0041-.4807-.1807-.9438-.5146-1.2895v-.0001l-.0061-.0061-3.4629-3.4629v-5.90759c0-.48623-.1931-.95254-.537-1.29636-.3438-.34381-.8101-.53697-1.2963-.53697-.4863 0-.9526.19316-1.2964.53697-.3438.34382-.537.81013-.537 1.29636zm1.8334-12.83335c7.0878 0 12.8333 5.74547 12.8333 12.83335 0 7.0878-5.7455 12.8333-12.8333 12.8333-7.08788 0-12.83335-5.7455-12.83335-12.8333 0-7.08788 5.74547-12.83335 12.83335-12.83335z" fill="#813af4" stroke="#3e1fb9"/></g></svg>